<svg xmlns="http://www.w3.org/2000/svg" width="32.513" height="35.072" viewBox="0 0 32.513 35.072">
    <defs>
        <style>
            .cls-1{fill:#fff;opacity:.4}
        </style>
    </defs>
    <path id="bot_assembly" d="M39.171 17.619a4.653 4.653 0 0 0-3.482-1.51 5.424 5.424 0 0 0-2.646.658V7.25h-7.828a5.338 5.338 0 0 0 .574-2.491 4.6 4.6 0 0 0-1.51-3.459 5.44 5.44 0 0 0-7.067 0A4.6 4.6 0 0 0 15.7 4.759a5.327 5.327 0 0 0 .589 2.491H7.956v10.727l.732-.367a4.514 4.514 0 0 1 2.176-.537 3.663 3.663 0 0 1 2.752 1.192 4.474 4.474 0 0 1 .009 5.774 3.652 3.652 0 0 1-2.748 1.193 4.671 4.671 0 0 1-2.192-.524l-.727-.356v10.72h9.565l-.424-.726a4.333 4.333 0 0 1-.611-2.273 3.639 3.639 0 0 1 1.192-2.737 4.48 4.48 0 0 1 5.774 0 3.636 3.636 0 0 1 1.193 2.734 4.413 4.413 0 0 1-.6 2.278l-.413.722h9.406v-9.514a5.484 5.484 0 0 0 2.646.641 4.625 4.625 0 0 0 3.468-1.51 5.439 5.439 0 0 0 .013-7.067z" class="cls-1" data-name="bot assembly" transform="translate(-7.956)"/>
</svg>
