<svg xmlns="http://www.w3.org/2000/svg" width="29.727" height="38.252" viewBox="0 0 29.727 38.252">
    <defs>
        <style>
            .cls-1{opacity:.4}.cls-2{fill:#fff}
        </style>
    </defs>
    <g id="run" class="cls-1" transform="translate(-1.822)">
        <g id="Group_17" data-name="Group 17">
            <ellipse id="Ellipse_10" cx="3.718" cy="3.718" class="cls-2" data-name="Ellipse 10" rx="3.718" ry="3.718" transform="translate(20.147)"/>
            <path id="Path_43" d="M7.745 35.92c4.43-6.612 7.674-13.27 8.526-14.724a4.372 4.372 0 0 1 .319-.8 192.911 192.911 0 0 1 3.15-5.859l-3.44.263q-1.18 2.325-2.355 4.651c-1.264 2.5-5.006.3-3.745-2.19 1.012-2 2.211-6.5 4.824-6.7l8.338-.647c.068-.005.126 0 .191 0a4.219 4.219 0 0 1 5.009 3.062c1.421 3.077 3.461 5.479 6.884 6.482 2.679.784 1.538 4.969-1.153 4.183a14.036 14.036 0 0 1-7.657-5.482 189.54 189.54 0 0 0-3.25 6.022A28.157 28.157 0 0 1 29.45 29.9a1.935 1.935 0 0 1 .41 1.808 2.342 2.342 0 0 1-.066.659c-.676 2.678-.55 3.681-1.227 6.356-.718 2.851-5.231 2.041-4.507-.828.644-2.549.487-3.428 1.131-5.979a21.375 21.375 0 0 0-5.7-4.8 2.272 2.272 0 0 1-1.013-1.136c-2.976 4.561-4.132 8.917-7.106 12.741-1.813 2.332-5.445-.462-3.627-2.801z" class="cls-2" data-name="Path 43" transform="translate(-5.428 -2.242)"/>
        </g>
    </g>
</svg>
